<svg xmlns="http://www.w3.org/2000/svg" xmlns:xlink="http://www.w3.org/1999/xlink" viewBox="0 0 1325.8 1511.5" width="175.42838" height="200">
  
  <path fill="#3b7d5c" d="M814.8,738.1a220.3,220.3 0,0 1,-340.6 44.1l444.1,437 11,-10.2 167.8,-167.8a625,625 0,0 0,141.2 -276.2L1046.7,883.3Z"/>
  
  <path fill="#d24f44" d="M1251.7,675.9l-8.4,-4l-197.3,121.8l-181.9,-113.9l-17.1,-10.7l-5.2,2.4l-70,32.4l-6.7,3.1l49.7,31.1l231.9,145.2l191.6,-118.3l87.5,-54l-74.1,-35.1z"/>
  
  <path fill="#e08a3f" d="M1156.5,630.7l-111.1,68.6l-75.3,-47.2l-36.8,-23l-82.5,-51.7l-7.7,3.6l-78.6,36.4l78.4,49.1l4.1,2.6l17.1,10.7l181.9,113.9l197.3,-121.8l9,-5.6l72.8,-44.9l-72.8,-34.5l-11.3,-5.4l-2.7,-1.3l-5.6,3.4l-76.2,47.1z"/>
  
  <path fill="#26353b" d="M474.2,782.2l-0.6,-0.6a219.6,219.6 0,0 1,-67.2 -158.4c0,-121.7 98.6,-220.3 220.3,-220.3a220.1,220.1 0,0 1,183.6 98.5l-46.6,21.6L840.9,571.3l9.8,6.2 82.5,51.7 36.8,23 75.3,47.2L1156.5,630.7l76.2,-47.1 5.6,-3.4 13,-8 73.2,-45.2 -86.8,-41.1c-63.9,-278.3 -313.2,-485.9 -610.9,-485.9 -346.2,0 -626.8,280.6 -626.8,626.8a624.4,624.4 0,0 0,156.5 414.4l470.3,470.3 137,-137 0,0 -14.6,13.7 -68.6,-72.8 29.1,-27.4 68.2,72.3 151.4,-151.4 -11,10.2ZM984.5,326.4c26.9,28 47.5,57.2 61.2,86.8l-36.3,16.8c-11.6,-25.2 -30.2,-51.4 -53.7,-75.9ZM811.4,212.7A502.9,502.9 0,0 1,903.9 260.1l-21.8,33.5A462.8,462.8 0,0 0,796.9 249.9ZM641.8,180.2a453.3,453.3 0,0 1,69 5.3l-6.1,39.5a413.2,413.2 0,0 0,-62.9 -4.9c-10.7,0 -21.5,0.4 -32.1,1.3l-3.2,-39.9C618.1,180.7 630,180.2 641.8,180.2ZM504,202.6l12.6,38a424,424 0,0 0,-86.3 40.3l-20.8,-34.2A464.1,464.1 0,0 1,504 202.6ZM207,478.3L244.3,492.7a345.8,345.8 0,0 0,-21.6 91.7L183,580.7A385.8,385.8 0,0 1,207 478.4ZM216,785.9a420.8,420.8 0,0 1,-29.5 -100.5l39.5,-6.4a380.8,380.8 0,0 0,26.7 90.9ZM316.6,318.6c3.4,-3.2 6.8,-6.4 10.2,-9.5l27,29.5c-3.2,2.9 -6.4,5.9 -9.5,8.9A453.4,453.4 0,0 0,289.7 409.7l-32.4,-23.4A493.5,493.5 0,0 1,316.6 318.6ZM337.6,951.6L297.2,908.7c-9.8,-10.4 -19.2,-21.4 -27.9,-32.7l31.7,-24.4c7.9,10.3 16.4,20.3 25.3,29.7l40.5,42.9ZM474.8,1097.1 L406.2,1024.4 435.3,996.9 503.9,1069.7ZM612,1242.7 L543.4,1169.9 572.5,1142.5 641.1,1215.2Z"/>
  
  <path fill="#4db267" d="M641.8,220.2a413.2,413.2 0,0 1,62.9 4.9l6.1,-39.5a453.3,453.3 0,0 0,-69 -5.3c-11.8,0 -23.7,0.5 -35.3,1.4l3.2,39.9C620.3,220.7 631.1,220.2 641.8,220.2Z"/>
  
  <path fill="#4db267" d="M516.7,240.5l-12.6,-38a464.1,464.1 0,0 0,-94.5 44.1l20.8,34.2A424,424 0,0 1,516.7 240.5Z"/>
  
  <path fill="#4db267" d="M903.9,260.1a502.9,502.9 0,0 0,-92.5 -47.5L796.9,249.9a462.8,462.8 0,0 1,85.2 43.7Z"/>
  
  <path fill="#4db267" d="M543.5,1169.9l29.1,-27.4l68.6,72.8l-29.1,27.4z"/>
  
  <path fill="#4db267" d="M680.7,1315.4l68.6,72.8l14.6,-13.7l14.5,-13.7l-0.4,-0.4l-68.2,-72.3l-29.1,27.4z"/>
  
  <path fill="#4db267" d="M1045.7,413.1c-13.7,-29.6 -34.3,-58.8 -61.2,-86.8l-28.9,27.7c23.5,24.5 42.1,50.7 53.7,75.9Z"/>
  
  <path fill="#4db267" d="M406.3,1024.3l29.1,-27.4l68.6,72.8l-29.1,27.4z"/>
  
  <path fill="#4db267" d="M244.3,492.7l-37.3,-14.4A385.8,385.8 0,0 0,183 580.7l39.8,3.8A345.8,345.8 0,0 1,244.3 492.7Z"/>
  
  <path fill="#4db267" d="M301,851.6l-31.7,24.4c8.7,11.3 18.1,22.3 27.9,32.7l40.5,42.9 29.1,-27.4 -40.5,-42.9C317.4,871.9 308.9,861.9 301,851.6Z"/>
  
  <path fill="#4db267" d="M344.2,347.5c3.1,-3 6.3,-6 9.5,-8.9l-27,-29.5c-3.4,3.1 -6.8,6.3 -10.2,9.5a493.5,493.5 0,0 0,-59.4 67.7L289.7,409.7A453.4,453.4 0,0 1,344.2 347.5Z"/>
  
  <path fill="#4db267" d="M186.5,685.5a420.8,420.8 0,0 0,29.5 100.5l36.7,-16a380.8,380.8 0,0 1,-26.7 -90.9Z"/>
  
</svg>
