<?xml version="1.0" standalone="no"?>
<!DOCTYPE svg PUBLIC "-//W3C//DTD SVG 20010904//EN"
 "http://www.w3.org/TR/2001/REC-SVG-20010904/DTD/svg10.dtd">
<svg version="1.0" xmlns="http://www.w3.org/2000/svg"
 width="1244.000000pt" height="2048.000000pt" viewBox="0 0 1244.000000 2048.000000"
 preserveAspectRatio="xMidYMid meet">
<metadata>
Created by potrace 1.16, written by Peter Selinger 2001-2019
</metadata>
<g transform="translate(0.000000,2048.000000) scale(0.100000,-0.100000)"
fill="#000000" stroke="none">
<path d="M5240 19911 c-47 -11 -118 -31 -158 -46 -40 -14 -77 -23 -82 -20 -9
6 -130 -50 -130 -60 0 -3 27 8 60 25 96 49 83 34 -17 -19 -51 -27 -107 -60
-125 -72 -17 -13 -28 -18 -24 -11 4 6 27 23 52 38 45 27 62 44 22 23 -49 -25
-148 -100 -145 -111 1 -6 -4 -13 -12 -16 -10 -3 -11 0 -5 9 13 23 -85 -64
-160 -140 -39 -39 -71 -78 -72 -87 -2 -9 -8 -22 -14 -28 -8 -8 -9 -6 -4 9 5
11 -7 2 -26 -20 -60 -71 -66 -79 -51 -70 9 5 12 3 9 -6 -3 -8 -11 -13 -17 -11
-7 1 -10 -2 -6 -8 3 -5 -1 -10 -9 -10 -9 0 -16 -5 -16 -11 0 -5 5 -7 11 -4 6
4 5 -2 -2 -14 -8 -11 -16 -16 -19 -11 -3 5 -16 -7 -28 -27 -13 -19 -19 -32
-13 -28 15 9 13 -6 -3 -28 -10 -13 -15 -14 -18 -6 -3 9 -7 7 -11 -5 -4 -10 -3
-15 3 -11 6 3 10 2 10 -4 0 -6 -9 -15 -20 -21 -11 -6 -25 -20 -31 -31 -8 -15
-8 -19 0 -15 17 11 14 1 -19 -64 -29 -58 -45 -78 -34 -42 5 14 4 15 -5 2 -6
-8 -6 -19 -2 -23 11 -11 -25 -93 -39 -89 -5 1 -10 -2 -10 -8 0 -5 4 -10 9 -10
5 0 4 -13 -2 -29 -6 -16 -15 -29 -20 -28 -5 1 -12 -5 -14 -13 -4 -13 -3 -13 7
0 14 19 12 4 -24 -135 -26 -104 -44 -182 -326 -1440 -21 -93 -75 -332 -120
-530 -120 -534 -142 -632 -214 -950 -36 -159 -88 -391 -116 -515 -28 -124 -58
-257 -67 -297 -9 -40 -19 -70 -24 -68 -4 3 -5 -3 -2 -13 2 -10 -23 -137 -55
-283 -55 -243 -84 -368 -132 -584 -10 -44 -73 -323 -140 -620 -67 -297 -148
-659 -181 -805 -32 -146 -64 -283 -69 -305 -15 -58 -180 -795 -180 -803 0 -4
-5 0 -10 8 -6 9 -10 10 -10 3 0 -6 4 -14 9 -17 5 -3 -2 -50 -14 -103 -13 -54
-35 -152 -50 -218 -51 -228 -284 -1265 -291 -1292 -7 -25 -8 -25 -15 -8 -6 16
-8 17 -8 3 -1 -9 3 -19 8 -22 5 -4 5 -21 0 -43 -5 -21 -16 -67 -24 -103 -8
-36 -57 -256 -110 -490 -53 -234 -99 -438 -102 -455 l-7 -30 -8 25 c-5 18 -6
15 -2 -12 4 -31 -104 -547 -166 -793 -6 -22 -26 -110 -44 -195 -19 -85 -71
-317 -116 -515 -45 -198 -106 -470 -136 -605 -30 -135 -75 -335 -100 -445 -25
-110 -61 -267 -79 -350 -19 -82 -76 -339 -128 -570 -53 -231 -116 -512 -141
-625 -86 -381 -114 -495 -116 -470 -1 16 -7 5 -15 -30 -16 -62 -18 -85 -5 -55
17 40 9 -8 -39 -221 -74 -331 -76 -345 -76 -589 0 -189 4 -235 23 -327 19 -89
55 -217 88 -303 4 -11 4 -17 -1 -13 -4 4 -25 58 -46 120 -21 62 -39 106 -39
98 -1 -54 141 -387 160 -375 5 3 14 -4 20 -16 8 -15 9 -19 1 -15 -16 10 -13
-6 6 -29 13 -16 15 -17 10 -2 -9 24 -2 21 18 -9 9 -15 12 -23 6 -20 -8 5 -8 0
1 -18 6 -14 16 -26 21 -26 5 0 46 -39 91 -87 98 -104 210 -190 320 -243 90
-44 103 -47 796 -225 272 -70 790 -202 1150 -295 360 -93 788 -203 950 -244
162 -42 531 -137 820 -211 1183 -304 1173 -302 1430 -342 492 -76 723 -46
1029 134 42 24 70 39 64 32 -7 -7 -50 -34 -95 -61 -46 -26 -79 -48 -75 -48 15
0 151 82 225 137 41 30 110 89 154 131 107 102 248 278 198 247 -16 -10 -11 1
7 16 11 10 14 10 9 2 -4 -7 -5 -13 -2 -13 3 0 20 24 39 53 40 62 55 91 30 58
-43 -59 -51 -62 -20 -9 17 32 39 57 47 58 13 0 13 1 0 10 -13 9 -7 14 12 11
10 -1 41 59 34 67 -3 3 -6 1 -6 -4 0 -6 -7 -19 -15 -30 -8 -10 2 19 21 66 34
80 64 131 49 85 -6 -19 -6 -19 5 -1 7 11 9 21 3 25 -5 3 -1 25 9 51 14 34 17
38 14 15 l-5 -30 14 30 c8 17 14 37 14 45 1 13 -1 13 -10 0 -9 -12 -10 -12 -5
3 3 10 6 21 6 23 0 3 5 2 10 -1 6 -3 10 -1 10 4 0 6 -4 11 -8 11 -5 0 -1 30 8
67 9 38 106 493 216 1012 109 519 200 937 202 928 2 -9 -1 -32 -7 -52 -5 -19
-6 -33 -2 -30 5 2 14 33 20 67 20 104 21 115 7 73 -8 -22 -15 -35 -15 -30 -1
16 418 1998 424 2003 3 3 5 -3 6 -14 1 -10 5 -1 10 20 5 21 7 41 4 44 -3 3 -5
-2 -5 -11 0 -9 -4 -18 -8 -21 -9 -5 244 1203 253 1213 3 3 4 -15 1 -39 -4 -33
-2 -28 9 19 8 35 13 67 10 69 -3 3 -5 -2 -5 -11 0 -9 -4 -18 -9 -21 -5 -3 -5
13 1 37 5 23 65 307 134 631 68 324 127 592 130 595 3 3 3 -15 0 -39 l-6 -45
10 39 c6 21 6 44 2 50 -8 10 38 229 332 1616 86 403 327 1546 376 1780 97 461
104 493 110 471 3 -15 11 5 24 63 10 48 17 89 14 92 -3 3 -11 -25 -18 -61 -7
-36 -15 -64 -17 -61 -9 9 30 171 43 179 8 4 14 16 13 25 0 14 -2 13 -9 -3 -17
-39 -10 3 42 249 29 138 55 239 58 226 3 -13 13 18 27 82 29 134 36 179 24
153 -4 -11 -11 -42 -15 -68 -4 -27 -10 -46 -13 -43 -10 10 49 271 63 279 8 4
14 16 13 25 0 14 -2 13 -9 -3 l-9 -20 1 20 c0 11 6 43 14 70 l13 50 -4 -50
c-5 -63 9 -22 18 50 4 33 3 42 -3 25 -14 -42 -10 8 6 65 l13 50 -4 -45 c-6
-62 11 -20 19 46 4 35 3 42 -3 24 -23 -66 1 62 93 495 14 66 26 125 27 130 0
6 4 1 8 -10 6 -15 11 -6 20 40 20 99 22 123 12 100 -15 -32 -12 2 9 90 10 44
19 71 19 60 0 -11 -4 -40 -10 -64 -5 -24 -8 -46 -5 -48 4 -4 21 73 31 142 4
24 3 26 -4 10 -14 -30 -13 -5 5 81 9 44 23 83 30 87 8 4 14 16 13 25 0 14 -2
13 -9 -3 l-9 -20 1 20 c0 11 6 43 14 70 l13 50 -4 -50 -4 -50 14 50 c7 28 13
61 13 75 l0 25 -8 -25 c-14 -44 -10 9 5 65 l14 50 -4 -45 -5 -45 15 50 c16 55
19 93 5 60 -8 -19 -9 -19 -9 3 -1 13 5 22 14 22 10 0 15 9 14 28 l-1 27 -8
-25 c-18 -56 -8 4 36 214 43 205 66 292 50 186 -4 -24 -5 -42 -2 -39 10 9 38
159 33 172 -3 6 -6 1 -6 -12 -1 -13 -4 -22 -7 -19 -9 10 69 363 83 371 7 4 13
16 12 25 0 14 -2 13 -9 -3 -15 -34 -11 -5 15 120 29 138 37 161 30 90 -6 -72
1 -49 35 114 31 148 39 215 15 126 -13 -46 -13 -46 -9 -10 3 22 11 65 19 95
l14 55 -4 -45 -4 -45 14 55 c17 68 29 148 16 110 -18 -50 -10 2 19 142 35 162
41 184 35 113 l-4 -50 14 55 c8 30 17 75 19 100 l6 45 -14 -50 c-8 -27 -14
-41 -14 -30 0 30 25 123 28 100 l1 -20 9 20 c5 11 8 31 8 45 l0 25 -8 -25 c-6
-20 -8 -21 -8 -5 0 11 4 34 8 50 7 28 8 29 10 5 2 -20 4 -17 11 14 5 21 7 41
4 44 -3 3 -5 -3 -5 -13 0 -10 -3 -16 -6 -13 -5 5 51 289 62 313 2 6 2 -12 0
-40 l-5 -50 10 40 c33 134 59 282 40 225 -16 -46 -11 4 9 85 11 44 18 61 15
38 -11 -95 13 -12 30 102 4 25 3 27 -5 10 -13 -25 -11 -11 26 175 23 116 27
161 28 320 0 200 -18 328 -68 465 -16 43 -20 66 -12 69 7 3 7 5 -1 5 -19 1
-46 58 -30 64 6 3 3 6 -8 6 -17 1 -17 3 -5 11 13 8 13 10 -2 10 -10 0 -15 6
-12 18 3 9 -2 26 -11 37 l-15 20 6 -20 c7 -20 7 -20 -9 0 -8 10 -13 25 -10 32
7 19 -99 153 -184 233 -41 38 -125 103 -187 143 -132 87 -136 89 -136 84 0 -3
29 -24 65 -47 36 -23 65 -45 65 -47 0 -3 -10 1 -23 10 -324 212 -484 299 -617
336 -117 32 -253 40 -870 51 -316 6 -897 17 -1290 25 -1738 36 -2229 46 -2600
50 -362 4 -402 3 -480 -14z m1283 -76 c605 -14 1102 -26 1102 -28 1 -1 -2 -17
-7 -34 l-8 -33 -138 5 c-75 3 -356 10 -624 15 -269 6 -707 15 -975 21 -269 6
-528 9 -578 6 -318 -20 -666 -242 -911 -582 -78 -109 -183 -317 -223 -441 -16
-50 -84 -333 -151 -630 -127 -565 -176 -784 -185 -821 -4 -19 -12 -23 -40 -23
-19 0 -35 5 -35 11 0 11 103 475 241 1081 91 401 133 523 248 722 54 95 57
101 40 90 -8 -4 -8 0 0 15 14 25 23 28 14 4 -8 -25 6 -10 56 60 107 147 252
288 400 387 130 87 322 165 470 190 73 12 141 11 1304 -15z m2602 -61 c952
-21 1091 -26 1170 -43 477 -98 787 -553 762 -1119 -7 -146 -13 -177 -215
-1132 -111 -520 -120 -555 -140 -558 -12 -2 -22 -1 -22 2 0 3 67 321 150 708
82 387 156 744 165 793 20 118 20 343 0 459 -69 394 -320 685 -670 777 -94 24
-212 29 -1460 54 -440 9 -870 20 -956 23 l-155 7 8 32 8 31 138 -4 c75 -3 623
-16 1217 -30z m-3095 -189 c146 -3 307 -8 358 -11 103 -7 102 -5 65 -76 -8
-16 -9 -28 -4 -28 13 0 -5 -49 -23 -64 -16 -13 -149 -360 -152 -396 -1 -14 -3
-30 -3 -37 -1 -7 -9 -20 -20 -30 -23 -22 -153 -364 -157 -413 -1 -19 -10 -39
-18 -46 -19 -13 -169 -401 -161 -414 6 -10 -15 -60 -25 -60 -9 0 -17 -17 -142
-328 -60 -150 -111 -290 -113 -310 -2 -20 -10 -41 -18 -47 -14 -10 -55 -110
-156 -379 -23 -60 -40 -110 -39 -111 2 -2 38 -5 81 -7 65 -4 79 -2 86 11 19
36 112 287 113 306 1 11 7 27 13 35 19 24 87 208 81 218 -3 5 3 20 13 33 21
27 167 384 303 739 171 448 281 736 333 875 62 166 201 514 207 520 2 3 270
-2 594 -10 324 -8 870 -21 1214 -30 1385 -33 1685 -42 1730 -50 226 -39 421
-188 527 -400 79 -158 108 -305 100 -508 -4 -123 -15 -183 -157 -842 -84 -390
-158 -739 -165 -775 -8 -36 -73 -342 -145 -680 -72 -338 -146 -687 -165 -775
-50 -234 -187 -880 -235 -1100 -22 -104 -44 -203 -49 -220 -5 -16 -19 -82 -30
-145 -12 -63 -33 -164 -46 -225 -13 -60 -49 -229 -80 -375 -100 -470 -299
-1407 -840 -3945 -124 -583 -284 -1332 -355 -1665 -70 -333 -147 -690 -170
-795 -42 -193 -527 -2477 -795 -3740 -80 -379 -150 -699 -155 -710 -8 -18 -9
-19 -9 -1 -1 10 -18 50 -38 90 -48 92 -147 191 -228 229 -39 18 -211 62 -493
126 -239 55 -436 101 -438 104 -3 3 -25 81 -49 173 -46 177 -77 279 -87 289
-5 5 -209 55 -225 55 -2 0 3 -10 11 -23 8 -12 27 -62 42 -112 16 -49 37 -98
48 -108 11 -12 14 -22 8 -26 -7 -4 -1 -39 15 -99 13 -52 22 -96 20 -98 -3 -3
-184 36 -403 87 -220 50 -496 113 -614 140 -118 26 -294 66 -390 89 -257 60
-1369 313 -1670 380 -102 23 -201 45 -220 50 -19 5 -183 43 -365 84 -181 42
-469 107 -640 146 -188 42 -332 70 -366 70 -106 0 -211 -46 -304 -135 l-37
-34 7 37 c3 20 15 73 25 117 19 78 355 1577 447 1990 26 116 48 212 50 215 8
9 292 -145 296 -160 2 -8 13 30 26 85 12 55 24 107 27 116 3 12 -34 35 -146
93 -92 48 -150 83 -150 92 0 18 61 287 66 293 2 2 12 -2 21 -10 16 -12 15 -11
-1 8 -18 22 -18 24 3 115 64 283 261 1166 261 1171 0 4 12 7 28 7 20 0 23 3
13 9 -12 8 29 114 216 558 127 301 245 588 262 636 17 48 74 199 127 335 l96
247 134 595 c74 327 133 599 131 604 -1 4 -11 -18 -21 -50 -10 -33 -76 -223
-147 -423 -71 -201 -127 -371 -125 -378 3 -7 -1 -18 -8 -26 -20 -20 -287 -707
-279 -719 3 -6 -1 -16 -9 -22 -17 -13 -102 -241 -94 -254 3 -5 -3 -19 -13 -31
-10 -11 -40 -72 -66 -136 -27 -63 -50 -113 -52 -111 -3 3 24 125 57 261 13 54
65 287 105 470 18 83 56 251 84 375 28 124 98 436 156 695 58 258 112 497 119
530 8 33 26 112 40 175 90 405 218 974 231 1025 8 33 35 152 60 265 24 113 63
286 86 385 22 99 49 218 59 265 10 47 26 117 35 155 20 85 123 544 135 600 15
69 196 875 270 1200 38 171 70 317 70 326 0 9 7 19 15 23 10 4 13 14 9 36 -6
25 -4 29 10 24 10 -4 16 -1 16 9 0 8 -6 17 -12 20 -8 2 -1 15 20 34 36 35 39
49 16 74 -15 17 -15 25 2 101 17 72 22 83 42 86 26 4 49 35 58 79 5 25 1 34
-21 51 -30 24 -32 7 16 212 16 69 36 157 45 195 8 39 22 97 29 130 21 92 155
689 176 785 26 121 156 699 180 800 10 47 29 126 40 175 111 478 475 873 894
971 62 14 91 14 865 -1z m4948 -143 c151 -176 257 -426 278 -658 6 -71 9 -78
43 -108 19 -17 61 -57 93 -88 32 -32 63 -58 68 -58 6 0 10 -6 10 -13 0 -7 11
-24 24 -39 14 -14 23 -28 20 -31 -3 -2 11 -18 31 -35 19 -17 35 -36 35 -42 0
-6 4 -9 9 -6 5 3 14 -8 20 -24 10 -31 26 -39 34 -17 9 21 -4 -115 -19 -203 -9
-47 -81 -391 -161 -765 -80 -374 -146 -686 -146 -692 0 -16 3 -17 -51 13 -26
15 -43 30 -40 36 4 7 2 8 -4 4 -6 -4 -81 32 -166 79 l-154 87 9 31 c35 133
300 1435 310 1522 20 191 -6 423 -68 605 -37 109 -103 234 -187 359 -98 145
-92 135 -68 122 12 -6 48 -42 80 -79z m-7198 -2321 c0 -8 -132 -595 -1205
-5361 -543 -2412 -1406 -6247 -1616 -7180 -55 -245 -101 -446 -102 -447 -7 -6
-60 12 -64 22 -2 7 25 143 61 301 36 159 153 681 261 1159 108 479 216 960
241 1070 25 110 81 358 124 550 43 193 99 441 124 553 25 111 66 292 91 402
89 396 136 606 285 1265 83 369 184 819 225 1000 41 182 101 449 134 595 84
373 551 2446 616 2735 69 307 382 1694 485 2150 43 193 120 535 170 760 50
226 93 416 96 423 4 13 74 17 74 3z m6900 -391 c0 -11 -775 -3652 -2155
-10125 -427 -2002 -795 -3729 -818 -3838 -23 -108 -44 -197 -47 -197 -31 1
-27 30 95 600 68 322 284 1339 480 2260 196 921 439 2064 540 2540 522 2454
997 4687 1366 6425 94 440 221 1041 284 1335 63 294 134 632 159 750 25 118
48 225 51 238 5 22 45 33 45 12z m390 -151 c107 -61 198 -113 201 -117 4 -4 3
-16 -2 -27 -9 -18 -9 -18 -5 3 5 27 -5 28 -35 2 -21 -17 -22 -19 -6 -20 11 0
15 4 11 12 -4 7 -3 8 4 4 15 -9 4 -36 -14 -36 -8 0 -14 -5 -14 -11 0 -5 4 -7
10 -4 7 4 7 -2 0 -19 -5 -15 -6 -28 0 -31 5 -3 7 -13 4 -23 -5 -14 -4 -15 5
-2 9 13 11 13 10 0 0 -32 -97 -463 -99 -440 -1 14 -12 -15 -25 -65 -13 -49
-27 -100 -30 -113 -4 -12 -2 -28 4 -36 9 -10 2 -60 -29 -207 -40 -194 -55
-249 -45 -174 7 50 -9 27 -19 -28 -4 -21 -14 -41 -22 -44 -13 -5 -13 -7 -2
-14 9 -6 9 -9 1 -9 -14 0 -13 -64 1 -77 5 -4 6 0 3 9 -3 10 -2 20 2 23 5 2 12
25 16 51 3 25 9 44 12 41 7 -8 -90 -457 -98 -451 -4 2 -11 -1 -15 -7 -4 -8 -3
-9 4 -5 14 8 14 -3 6 -56 -4 -21 -10 -35 -15 -32 -5 3 -6 -2 -3 -10 8 -20 -37
-227 -48 -220 -4 3 -11 -8 -14 -25 -4 -17 -11 -28 -16 -25 -6 4 -8 -2 -4 -14
5 -14 2 -22 -11 -26 -10 -3 -23 -17 -30 -31 -8 -19 -8 -24 0 -19 7 3 1 -4 -12
-15 -21 -19 -21 -21 -5 -28 15 -6 15 -7 -4 -14 -12 -5 -22 -16 -23 -26 0 -10
-2 -25 -4 -33 -52 -232 -121 -553 -139 -646 -13 -67 -37 -174 -45 -204 -6 -19
-12 -46 -15 -60 -28 -160 -57 -239 -97 -261 -52 -27 -99 36 -99 132 0 29 34
215 76 413 186 885 179 859 229 892 33 21 62 10 82 -32 18 -37 34 -46 26 -13
-3 11 -20 36 -38 55 -41 43 -89 46 -134 9 -34 -29 -49 -64 -32 -74 8 -5 -28
-190 -114 -597 -69 -324 -128 -597 -131 -606 -3 -10 -11 -17 -17 -15 -8 1 -12
-12 -11 -38 1 -59 11 -90 40 -124 35 -42 97 -44 146 -4 28 24 30 24 13 4 -19
-23 -82 -57 -97 -53 -4 1 -5 -5 -2 -13 8 -19 24 -19 24 0 0 9 9 15 23 15 20
-1 20 -2 5 -11 -10 -5 -18 -19 -18 -29 0 -11 -4 -20 -10 -20 -5 0 -1 -9 11
-21 15 -15 17 -24 10 -33 -6 -7 -8 -23 -5 -37 3 -13 7 -34 10 -46 3 -16 -3
-26 -22 -36 -22 -12 -24 -15 -10 -20 10 -4 15 -3 11 3 -3 6 -1 10 4 10 14 0
14 -17 1 -25 -5 -3 -7 -21 -5 -40 3 -21 1 -35 -6 -35 -6 0 -8 -8 -4 -19 3 -11
2 -22 -4 -25 -5 -3 -12 -39 -16 -78 -4 -40 -14 -86 -22 -101 -8 -16 -12 -31
-9 -35 3 -3 0 -12 -7 -20 -10 -13 -9 -14 2 -7 11 6 10 2 -2 -16 -9 -13 -17
-32 -17 -42 0 -12 -4 -16 -12 -11 -9 5 -9 2 1 -9 12 -15 9 -21 -11 -18 -5 0
-8 -6 -8 -15 0 -8 -5 -12 -11 -8 -8 4 -8 1 -2 -12 12 -25 10 -54 -4 -79 -11
-18 -12 -18 -13 -2 0 9 5 17 11 17 5 0 7 5 4 10 -5 8 -11 8 -19 1 -15 -13 -14
-65 3 -105 6 -16 10 -31 7 -33 -2 -3 -7 6 -11 19 -4 13 -17 37 -28 53 -16 22
-17 27 -4 16 15 -11 17 -11 17 2 0 10 -11 15 -32 16 -18 1 -46 2 -63 3 -16 1
-39 -2 -49 -7 -14 -6 -17 -5 -12 3 12 19 1 14 -20 -10 -10 -12 -13 -18 -6 -14
17 10 15 0 -5 -30 -12 -19 -13 -28 -5 -33 8 -5 -64 -361 -249 -1236 -143 -677
-265 -1234 -270 -1239 -5 -5 -12 -7 -16 -3 -3 4 28 170 70 370 78 370 240
1139 366 1736 74 347 74 347 66 340 -4 -5 -255 -1175 -255 -1192 0 -4 -4 -6
-8 -3 -5 3 -6 -9 -4 -26 3 -21 1 -29 -7 -24 -6 4 -11 3 -11 -3 0 -5 -3 -18 -6
-28 -5 -15 -4 -15 5 -3 6 8 11 10 11 4 0 -6 -7 -17 -15 -24 -8 -7 -15 -18 -15
-24 0 -6 5 -4 10 4 8 12 10 12 10 1 0 -8 -8 -20 -17 -28 -10 -8 -12 -12 -5 -8
8 4 12 -2 12 -17 0 -16 -3 -19 -9 -10 -6 11 -9 9 -13 -6 -3 -11 -1 -26 6 -33
8 -9 8 -10 -3 -4 -11 6 -13 3 -9 -13 4 -13 2 -19 -6 -16 -7 3 -13 -5 -13 -18
-3 -38 -26 -118 -35 -118 -4 0 -8 -10 -8 -22 0 -13 -12 -63 -26 -113 -14 -49
-27 -97 -29 -105 -2 -8 -4 -15 -5 -15 -1 0 -3 -7 -5 -15 -2 -8 -10 -44 -19
-79 -8 -36 -13 -68 -10 -73 3 -4 0 -8 -7 -8 -6 0 -9 -8 -6 -20 3 -11 2 -20 -1
-20 -4 0 -8 -16 -9 -36 -1 -20 -6 -41 -11 -47 -4 -7 -7 -22 -6 -34 0 -13 -2
-23 -5 -23 -4 0 -13 -21 -20 -47 -7 -27 -17 -59 -21 -73 -5 -14 -12 -40 -15
-57 -4 -19 -13 -33 -21 -33 -8 0 -14 -9 -14 -20 0 -11 4 -20 10 -20 5 0 7 -7
3 -16 -5 -13 -8 -13 -15 -2 -7 9 -8 2 -4 -20 4 -22 2 -31 -5 -27 -7 5 -8 -6
-5 -32 4 -23 3 -31 -2 -20 -6 14 -11 2 -21 -46 -7 -36 -10 -71 -5 -78 4 -7 3
-10 -3 -6 -7 4 -18 -31 -31 -96 -11 -56 -102 -480 -201 -942 -100 -462 -196
-907 -213 -989 -18 -82 -33 -145 -35 -140 -2 5 89 446 201 979 274 1301 572
2709 701 3320 176 833 335 1585 356 1685 11 52 130 613 264 1245 134 633 299
1412 366 1733 68 320 126 582 129 582 3 0 93 -50 200 -111z m-878 -4496 c10
-9 18 -21 18 -27 0 -6 -7 0 -16 12 -15 21 -62 33 -49 12 4 -6 11 -7 17 -4 7 4
8 2 4 -4 -4 -6 -13 -9 -20 -6 -8 3 -17 0 -21 -5 -3 -6 -10 -9 -15 -6 -11 7
-44 -80 -37 -99 3 -8 2 -16 -2 -18 -12 -4 -104 -445 -97 -464 3 -8 2 -12 -4
-9 -6 3 -10 -5 -10 -19 0 -13 3 -26 8 -29 4 -2 1 -2 -5 -1 -8 2 -13 -6 -13
-19 0 -17 2 -19 9 -8 7 10 9 7 8 -12 -2 -31 -13 -35 -21 -9 -3 9 -4 3 -2 -15
1 -18 0 -30 -4 -28 -3 2 -28 -100 -55 -227 -27 -126 -51 -226 -52 -221 -2 6
28 160 67 344 181 856 173 824 218 859 30 24 50 25 74 3z m-9377 -8125 c2 -2
-19 -100 -45 -218 -27 -118 -54 -259 -60 -313 -17 -137 -8 -404 19 -524 82
-373 277 -647 552 -777 77 -37 154 -58 814 -226 932 -237 2321 -591 2338 -596
18 -6 22 -30 9 -51 -5 -9 -258 52 -947 226 -517 132 -1210 307 -1540 391 -330
83 -633 166 -674 182 -323 134 -563 480 -638 918 -20 115 -22 378 -4 500 10
72 93 460 106 497 3 9 13 9 36 3 17 -5 33 -11 34 -12z m445 -478 c77 -19 80
-21 80 -41 0 -17 -5 -19 -33 -14 l-33 7 -22 -96 c-12 -52 -22 -102 -22 -110 0
-19 -29 -21 -36 -3 -3 8 5 56 16 107 22 100 21 120 -8 120 -25 0 -31 7 -25 31
4 12 12 18 22 15 9 -3 36 -10 61 -16z m2840 -134 l225 -52 3 -32 c2 -23 -2
-34 -14 -39 -22 -8 -465 95 -483 113 -19 17 0 64 26 63 10 0 119 -24 243 -53z
m-2647 12 c23 -18 24 -41 8 -125 -12 -59 -18 -73 -33 -73 -10 0 -18 7 -18 16
0 13 -3 14 -15 4 -23 -19 -64 -4 -71 27 -12 45 14 77 66 83 47 5 60 20 36 39
-10 9 -20 9 -33 2 -27 -14 -51 2 -34 23 16 19 71 21 94 4z m287 5 c0 -5 -7
-35 -15 -68 -20 -82 -19 -83 18 -47 29 28 77 44 77 25 0 -4 -16 -23 -35 -43
l-34 -35 14 -49 c19 -63 19 -66 -5 -66 -15 0 -22 11 -31 45 -13 52 -29 54 -41
7 -8 -29 -26 -41 -40 -26 -3 3 -2 20 2 37 5 18 18 76 30 130 18 81 25 97 41
97 10 0 19 -3 19 -7z m-117 -50 c18 -17 23 -53 7 -53 -5 0 -18 10 -29 21 -12
13 -26 19 -35 16 -25 -10 -18 -35 14 -52 42 -22 54 -49 38 -83 -25 -52 -128
-36 -128 20 0 24 27 23 40 -2 13 -24 38 -26 47 -4 4 11 -1 22 -13 31 -61 44
-71 76 -33 114 23 23 60 20 92 -8z m357 -3 c5 0 11 -30 15 -67 3 -38 8 -84 11
-103 l6 -34 49 84 c41 71 53 84 72 82 12 -2 24 -5 25 -7 2 -2 -9 -62 -24 -134
-24 -108 -32 -131 -46 -131 -22 0 -22 11 -3 95 9 37 15 71 13 76 -2 5 -23 -27
-48 -71 -25 -44 -49 -79 -55 -77 -15 5 -23 45 -24 120 -1 37 -5 67 -11 67 -5
0 -10 -6 -10 -14 0 -26 -32 -156 -39 -156 -33 1 -30 33 24 258 4 16 11 22 21
18 9 -3 19 -6 24 -6z m284 -140 c43 -16 49 -42 30 -131 -14 -64 -20 -79 -35
-79 -11 0 -19 7 -19 17 0 13 -3 14 -12 5 -29 -29 -78 -1 -78 45 0 39 27 63 71
63 43 0 58 15 36 37 -11 11 -20 12 -34 5 -12 -7 -24 -7 -34 -1 -12 8 -10 13
10 29 27 23 31 23 65 10z m132 -46 c-7 -17 -1 -18 24 -2 15 9 25 10 37 2 35
-22 37 -39 19 -128 -19 -88 -21 -92 -44 -77 -11 6 -10 20 3 76 14 62 14 70 0
84 -26 27 -48 1 -64 -73 -11 -52 -18 -66 -33 -66 -22 0 -22 10 -3 97 9 37 18
78 20 90 4 16 10 20 26 16 12 -3 18 -11 15 -19z m244 -54 c11 -11 20 -29 20
-39 0 -20 -29 -153 -34 -159 -7 -6 -35 11 -31 18 3 5 -10 6 -30 3 -42 -7 -65
9 -65 46 0 44 22 64 71 65 37 1 44 4 44 21 0 16 -7 20 -37 20 -46 1 -59 12
-34 31 28 20 73 17 96 -6z m152 -40 c15 -23 28 -26 28 -6 0 9 7 12 20 9 13 -4
19 -11 16 -22 -3 -9 -15 -59 -26 -111 -26 -119 -39 -140 -86 -140 -34 0 -84
35 -84 60 0 16 37 12 44 -5 3 -8 17 -15 30 -15 26 0 46 25 46 56 0 14 -3 15
-12 6 -35 -35 -88 4 -88 65 0 92 76 162 112 103z m217 -56 c21 -27 27 -69 13
-91 -5 -9 -19 -9 -47 -3 -57 13 -65 12 -65 -9 0 -27 28 -47 48 -35 19 11 52 7
52 -6 0 -15 -43 -40 -68 -40 -38 0 -72 43 -72 90 0 70 36 120 86 120 23 0 38
-7 53 -26z m106 -25 c-7 -20 -6 -20 18 -4 30 19 67 6 67 -22 0 -13 3 -14 12
-5 15 15 61 15 76 0 16 -16 15 -45 -4 -129 -13 -56 -19 -69 -35 -69 -21 0 -23
9 -10 60 21 80 21 88 5 105 -24 24 -41 3 -55 -65 -13 -69 -22 -85 -42 -77 -14
5 -14 13 -2 64 19 77 18 102 -1 110 -24 9 -40 -18 -55 -93 -13 -66 -15 -69
-37 -55 -12 7 -12 19 -2 67 23 118 29 134 51 134 16 0 19 -4 14 -21z m348 -81
c11 -13 17 -37 17 -65 0 -42 -2 -45 -22 -39 -13 3 -40 9 -61 12 -36 6 -39 5
-35 -16 4 -32 32 -48 56 -33 11 6 24 8 32 3 21 -13 -16 -50 -49 -50 -62 0 -93
59 -72 138 21 76 90 102 134 50z m107 -23 c0 -18 12 -19 28 -3 17 17 60 -6 68
-36 3 -14 -1 -59 -11 -101 -13 -62 -20 -75 -36 -75 -23 0 -23 7 -5 85 15 62 8
95 -18 95 -22 0 -35 -24 -49 -91 -11 -54 -16 -63 -33 -61 -10 2 -20 5 -20 5
-1 1 8 46 19 100 17 80 24 97 39 97 10 0 18 -7 18 -15z m1167 -267 c-3 -18 -9
-47 -12 -64 -7 -31 -6 -32 43 -43 40 -10 49 -16 45 -31 -4 -15 -10 -17 -39 -8
-57 15 -68 9 -79 -50 -5 -29 -14 -52 -20 -50 -11 3 -12 26 -1 84 l7 42 -45 6
c-37 6 -46 11 -46 28 0 16 4 19 25 14 83 -20 75 -25 90 54 9 42 13 50 27 50 6
0 8 -13 5 -32z m906 -169 c12 -6 32 -23 44 -37 22 -26 22 -26 44 -7 18 16 21
17 17 4 -4 -9 -10 -37 -13 -63 -4 -25 -11 -48 -15 -51 -5 -3 -31 0 -59 6 l-51
11 30 25 c36 30 38 47 6 68 -54 36 -116 13 -152 -57 -33 -63 -3 -154 56 -174
43 -14 64 -8 99 26 36 37 61 25 30 -13 -63 -81 -165 -72 -209 18 -26 54 -25
110 3 165 37 74 111 109 170 79z m1973 -33 c6 -14 -61 -342 -98 -481 -70 -266
-217 -529 -402 -718 -262 -269 -622 -411 -934 -368 -68 10 -530 124 -1469 362
-122 31 -123 32 -123 60 0 16 4 29 9 29 5 0 355 -89 778 -197 l768 -197 165
-1 c131 0 179 4 235 19 347 94 642 352 825 724 68 137 111 274 164 527 26 121
49 228 52 238 6 20 23 22 30 3z m-1068 -142 c17 -5 22 -14 22 -39 0 -38 19
-58 52 -53 19 3 24 -3 32 -39 8 -40 7 -44 -18 -64 -29 -23 -33 -45 -11 -76 13
-19 13 -24 -7 -49 -36 -48 -37 -48 -57 -30 -25 22 -56 8 -65 -29 -6 -24 -10
-26 -39 -20 -45 10 -49 14 -42 42 8 33 -17 62 -49 56 -19 -4 -25 0 -30 24 -4
15 -9 36 -12 45 -4 12 3 21 20 29 31 14 40 47 21 76 -19 29 -19 32 10 67 23
29 24 29 49 13 24 -16 27 -16 46 3 11 11 20 27 20 35 0 16 20 19 58 9z"/>
<path d="M7488 19225 c-67 -22 -150 -101 -190 -183 -29 -58 -33 -76 -33 -147
0 -96 20 -144 77 -185 85 -62 188 -46 287 46 79 72 113 141 119 239 4 63 1 80
-21 128 -43 95 -136 134 -239 102z"/>
<path d="M4350 15453 c-96 -33 -188 -120 -240 -227 -18 -36 -45 -126 -66 -221
-42 -187 -43 -274 -4 -362 26 -60 91 -125 141 -141 19 -6 518 -54 1109 -107
591 -52 1631 -145 2310 -206 679 -61 1267 -109 1305 -107 136 6 268 104 339
249 49 103 110 386 102 479 -7 92 -31 152 -82 209 -81 90 -53 85 -852 147
-1605 124 -3977 304 -3996 304 -12 -1 -41 -8 -66 -17z m393 -28 c177 -14 1233
-95 2346 -180 2248 -173 2082 -155 2157 -237 90 -100 101 -192 50 -433 -21
-99 -48 -195 -65 -230 -60 -128 -193 -232 -309 -242 -32 -2 -601 44 -1302 107
-685 61 -1726 153 -2315 205 -588 52 -1087 99 -1108 105 -57 17 -122 82 -147
146 -30 81 -26 167 14 349 47 206 101 308 198 372 34 23 128 62 151 63 4 0
153 -11 330 -25z"/>
<path d="M5006 14929 c-22 -100 -22 -101 21 -97 44 4 72 37 80 95 6 47 -14 73
-57 73 -26 0 -29 -4 -44 -71z"/>
<path d="M4088 14284 c-93 -28 -187 -119 -239 -229 -33 -70 -229 -930 -229
-1005 0 -63 25 -152 55 -200 27 -43 99 -95 144 -104 14 -4 510 -60 1101 -126
591 -66 1134 -127 1205 -135 72 -8 614 -69 1205 -136 591 -67 1111 -122 1155
-123 67 0 90 4 137 26 32 15 73 39 93 55 52 40 120 134 144 197 11 29 64 255
117 502 79 364 98 465 98 534 1 108 -21 173 -79 238 -82 91 -33 83 -1063 177
-505 47 -1555 143 -2334 215 -780 71 -1428 130 -1440 129 -13 0 -44 -7 -70
-15z m1816 -174 c952 -87 2006 -184 2341 -215 602 -55 611 -56 660 -84 92 -52
145 -151 145 -272 0 -71 -192 -973 -221 -1038 -50 -114 -155 -208 -262 -235
-58 -15 -98 -11 -2295 234 -1230 138 -2284 255 -2342 261 -129 14 -186 41
-230 108 -77 115 -74 157 49 698 106 471 115 500 193 588 57 65 145 113 207
115 13 0 803 -72 1755 -160z"/>
<path d="M8138 11768 c-2 -15 -13 -24 -36 -30 -19 -5 -36 -18 -42 -31 -5 -12
-28 -111 -51 -220 -36 -170 -40 -200 -28 -212 9 -9 78 -22 187 -36 156 -20
175 -21 188 -7 9 9 35 104 61 227 47 223 47 241 1 241 -17 0 -19 5 -13 30 6
25 4 30 -13 30 -13 0 -22 -9 -26 -26 -7 -25 -9 -26 -59 -20 -141 17 -134 15
-129 47 4 24 1 29 -16 29 -14 0 -22 -8 -24 -22z m92 -204 c80 -9 149 -20 154
-25 5 -5 -3 -62 -19 -139 -26 -116 -31 -130 -49 -130 -35 1 -295 36 -300 41
-4 4 36 207 50 252 6 21 -10 21 164 1z"/>
<path d="M5416 9502 c-3 -5 5 -8 17 -8 13 1 23 -6 25 -16 3 -13 -3 -18 -21
-18 -34 0 -48 -21 -41 -58 5 -22 2 -33 -7 -36 -8 -2 -35 -10 -62 -16 -61 -16
-126 -73 -163 -144 -18 -34 -36 -56 -48 -58 -26 -4 -31 -24 -8 -30 16 -5 20
-17 24 -74 5 -89 30 -140 91 -179 36 -23 46 -36 46 -57 1 -34 18 -37 27 -4 4
19 14 25 49 30 77 12 156 80 194 169 16 37 23 45 40 40 15 -4 21 -1 21 12 0 9
-8 19 -18 21 -14 4 -18 17 -19 62 -2 95 -47 175 -115 203 -21 9 -28 18 -26 33
2 12 10 20 20 20 12 -1 18 10 23 47 4 26 4 53 0 59 -7 12 -42 14 -49 2z m-36
-202 c0 -25 17 -26 25 -1 4 13 12 17 25 14 31 -8 88 -78 100 -123 14 -53 10
-105 -9 -105 -20 0 -26 -24 -8 -31 12 -4 13 -11 5 -34 -14 -42 -86 -120 -125
-136 -44 -19 -87 -18 -80 0 9 24 -6 28 -23 6 l-16 -21 -34 23 c-50 34 -80 92
-80 154 0 37 4 54 15 58 18 7 20 33 3 39 -16 5 8 58 47 105 52 62 155 97 155
52z"/>
<path d="M5310 9150 c-28 -28 -36 -69 -19 -99 31 -55 104 -28 116 42 10 66
-51 103 -97 57z"/>
<path d="M2797 7870 c-56 -44 -40 -140 23 -140 59 0 96 103 52 143 -24 22 -44
21 -75 -3z"/>
<path d="M3100 7827 c-13 -7 -30 -29 -38 -49 -12 -31 -12 -40 0 -65 11 -23 20
-28 46 -27 36 2 38 -2 16 -34 -17 -25 -52 -29 -60 -7 -8 19 -24 19 -24 0 0
-25 44 -47 73 -36 26 10 38 35 57 126 6 28 13 58 16 68 4 12 0 17 -15 17 -11
0 -23 5 -26 10 -8 13 -15 12 -45 -3z"/>
<path d="M3443 6931 c-55 -40 -86 -107 -87 -185 -1 -71 22 -118 74 -153 45
-31 87 -29 142 6 83 52 123 182 84 274 -36 88 -135 114 -213 58z m129 -12 c38
-17 61 -59 66 -115 6 -70 -11 -116 -59 -158 -70 -64 -154 -43 -188 47 -22 57
-5 130 41 183 46 52 91 66 140 43z"/>
<path d="M3483 6850 c-92 -55 -40 -219 54 -169 71 38 70 162 -2 183 -11 3 -34
-3 -52 -14z"/>
<path d="M5343 6584 c-89 -53 -130 -193 -84 -286 84 -173 311 -75 311 135 0
144 -113 220 -227 151z m144 -31 c52 -34 69 -142 34 -211 -52 -102 -152 -126
-215 -52 -106 127 47 350 181 263z"/>
<path d="M4950 5353 c-67 -12 -168 -73 -231 -140 -116 -124 -173 -270 -173
-448 0 -151 39 -263 127 -361 78 -86 97 -93 587 -199 245 -53 630 -136 856
-186 226 -49 431 -89 456 -89 158 0 330 125 418 303 143 292 61 632 -184 759
-23 12 -196 52 -425 98 -212 44 -597 122 -855 175 -436 88 -510 100 -576 88z
m714 -671 c4 -62 5 -116 2 -120 -11 -10 -41 13 -45 34 -7 37 -55 47 -66 14 -6
-20 -55 -30 -55 -11 0 4 23 52 51 105 47 89 53 97 78 94 26 -3 26 -4 35 -116z
m158 71 c25 -12 35 -30 39 -73 4 -45 -4 -73 -33 -106 -31 -35 -34 -36 -82 -29
-27 3 -53 8 -57 11 -4 2 1 43 12 91 31 145 25 133 62 126 17 -3 44 -12 59 -20z
m150 -23 c45 -13 78 -52 78 -94 -1 -42 -33 -112 -60 -126 -26 -14 -110 -3
-117 16 -7 20 39 214 51 214 6 0 28 -5 48 -10z"/>
<path d="M6455 2095 c-45 -44 -26 -135 27 -135 42 0 78 42 78 90 0 25 -42 70
-65 70 -9 0 -27 -11 -40 -25z"/>
<path d="M6655 19920 c165 -4 505 -10 755 -13 351 -4 387 -3 160 3 -162 4
-502 10 -755 13 -353 4 -390 3 -160 -3z"/>
</g>
</svg>
